<?xml version="1.0" standalone="no"?><!DOCTYPE svg PUBLIC "-//W3C//DTD SVG 1.1//EN" "http://www.w3.org/Graphics/SVG/1.1/DTD/svg11.dtd"><svg t="1606458835065" class="icon" viewBox="0 0 1024 1024" version="1.1" xmlns="http://www.w3.org/2000/svg" p-id="6017" xmlns:xlink="http://www.w3.org/1999/xlink" width="200" height="200"><defs><style type="text/css"></style></defs><path d="M421.647059 451.764706a15.058824 15.058824 0 0 0-10.646588 25.705412l90.352941 90.352941a15.058824 15.058824 0 0 0 21.293176 0l90.352941-90.352941a15.058824 15.058824 0 1 0-21.293176-21.293177L527.058824 520.824471V225.882353a15.058824 15.058824 0 1 0-30.117648 0v294.942118l-64.647529-64.64753A15.058824 15.058824 0 0 0 421.647059 451.764706z m419.915294 128.873412l0.150588-0.075294-150.588235-301.176471h-0.150588A14.923294 14.923294 0 0 0 677.647059 271.058824h-105.411765a15.058824 15.058824 0 0 0 0 30.117647h96.105412l135.529412 271.058823H617.411765a15.058824 15.058824 0 0 0-15.058824 15.058824 90.352941 90.352941 0 0 1-180.705882 0 15.058824 15.058824 0 0 0-15.058824-15.058824H220.129882l135.529412-271.058823H451.764706a15.058824 15.058824 0 0 0 0-30.117647h-105.411765a14.938353 14.938353 0 0 0-13.327059 8.402823h-0.150588l-150.588235 301.176471 0.150588 0.075294A14.576941 14.576941 0 0 0 180.705882 587.294118v210.823529a15.058824 15.058824 0 0 0 15.058824 15.058824h632.470588a15.058824 15.058824 0 0 0 15.058824-15.058824V587.294118a14.576941 14.576941 0 0 0-1.731765-6.656zM813.176471 783.058824H210.823529V602.352941h181.744942a120.365176 120.365176 0 0 0 238.878117 0H813.176471v180.705883z" p-id="6018"></path></svg>