<?xml version="1.0" standalone="no"?><!DOCTYPE svg PUBLIC "-//W3C//DTD SVG 1.1//EN" "http://www.w3.org/Graphics/SVG/1.1/DTD/svg11.dtd"><svg t="1606460719275" class="icon" viewBox="0 0 2375 1024" version="1.1" xmlns="http://www.w3.org/2000/svg" p-id="10447" xmlns:xlink="http://www.w3.org/1999/xlink" width="463.8671875" height="200"><defs><style type="text/css"></style></defs><path d="M640.98304 213.72928a470.13888 470.13888 0 0 0 78.52032 103.95648c67.82976-66.3552 121.6512-125.70624 161.46432-178.05312l58.61376 71.8848c2.94912 3.6864 4.42368 7.18848 4.42368 10.50624 0 3.31776-2.58048 5.16096-7.74144 5.5296a321.9456 321.9456 0 0 1-21.56544 0.55296c-9.216 0-25.98912 6.63552-50.31936 19.90656-24.33024 13.27104-67.46112 41.65632-129.39264 85.15584 74.46528 68.56704 175.84128 115.75296 304.128 141.55776l-1.10592 14.37696c-22.1184 2.21184-39.6288 7.3728-52.5312 15.48288-12.9024 8.11008-23.77728 22.1184-32.62464 42.02496-2.94912 5.16096-6.63552 7.74144-11.0592 7.74144-11.0592 0-52.5312-23.9616-124.416-71.8848-71.8848-47.9232-129.20832-105.79968-171.97056-173.62944-42.76224-67.82976-73.728-158.5152-92.89728-272.05632l18.80064-5.5296c14.7456 60.45696 34.65216 115.38432 59.71968 164.78208 57.50784-61.93152 106.9056-119.808 148.19328-173.62944l59.71968 77.4144c2.94912 4.42368 4.42368 8.2944 4.42368 11.61216 0 3.31776-7.00416 4.97664-21.01248 4.97664-27.27936 0-87.73632 32.44032-181.37088 97.32096z m-290.85696 163.67616c-91.42272 111.32928-199.0656 193.536-322.92864 246.62016l-12.16512-15.48288c110.592-70.0416 192.43008-136.94976 245.51424-200.72448 53.08416-63.77472 105.43104-157.22496 157.04064-280.35072h-193.536c-30.96576 0-56.03328 4.05504-75.20256 12.16512l-38.7072-47.55456c28.01664 3.6864 58.24512 5.5296 90.68544 5.5296H412.0576l47.55456-53.08416 64.14336 61.93152c8.11008 6.63552 12.16512 11.61216 12.16512 14.92992 0 3.31776-4.42368 5.71392-13.27104 7.18848-8.84736 1.47456-16.40448 6.08256-22.67136 13.824-6.26688 7.74144-14.56128 22.30272-24.8832 43.68384-36.12672 70.0416-76.30848 131.97312-120.54528 185.79456 26.54208 3.6864 53.82144 5.5296 81.83808 5.5296h131.60448l48.66048-57.50784 57.50784 66.3552c4.42368 5.89824 6.63552 10.69056 6.63552 14.37696 0 3.6864-4.42368 5.5296-13.27104 5.5296H460.71808c-29.4912 0-54.19008 3.6864-74.09664 11.0592l-36.49536-39.81312zM135.5776 203.776c41.28768 9.58464 73.728 23.40864 97.32096 41.472 23.59296 18.06336 35.38944 36.12672 35.38944 54.19008 0 18.06336-4.42368 34.46784-13.27104 49.21344-8.84736 14.7456-18.80064 22.1184-29.85984 22.1184-11.0592 0-19.53792-10.32192-25.43616-30.96576-14.7456-53.82144-39.44448-95.10912-74.09664-123.86304l9.95328-12.16512z m237.7728 320.7168h310.76352l26.54208-47.55456 80.73216 49.7664c5.89824 3.6864 8.84736 6.81984 8.84736 9.40032s-2.94912 6.08256-8.84736 10.50624l-25.43616 18.80064v45.34272c0 26.54208 0.73728 46.81728 2.21184 60.8256l4.42368 39.81312c0 11.0592-9.95328 22.1184-29.85984 33.1776s-33.1776 16.5888-39.81312 16.5888c-6.63552 0-9.95328-4.42368-9.95328-13.27104v-21.01248h-337.3056c0 14.00832-2.58048 23.77728-7.74144 29.30688s-15.11424 11.42784-29.85984 17.69472c-14.7456 6.26688-25.62048 9.40032-32.62464 9.40032-7.00416 0-10.50624-7.3728-10.50624-22.1184l2.21184-48.66048c1.47456-19.16928 2.21184-40.91904 2.21184-65.24928v-76.30848c0-29.4912-1.47456-63.40608-4.42368-101.74464l98.42688 55.296z m319.61088 172.52352v-142.66368h-337.3056v142.66368h337.3056z m-121.6512 241.09056c21.38112-48.66048 42.76224-110.96064 64.14336-186.90048l72.99072 48.66048c8.11008 5.89824 12.16512 10.1376 12.16512 12.71808s-3.6864 5.16096-11.0592 7.74144c-7.3728 2.58048-17.87904 11.42784-31.51872 26.54208-13.63968 15.11424-39.26016 45.52704-76.86144 91.2384h223.39584l71.8848-81.83808 79.62624 92.89728c4.42368 3.6864 6.63552 7.55712 6.63552 11.61216 0 4.05504-4.42368 6.08256-13.27104 6.08256H179.8144c-29.4912 0-54.19008 4.05504-74.09664 12.16512l-40.91904-46.44864c28.01664 3.6864 58.24512 5.5296 90.68544 5.5296h415.82592z m-216.76032-172.52352c70.77888 42.02496 106.16832 79.62624 106.16832 112.80384 0 11.0592-4.79232 21.56544-14.37696 31.51872-9.58464 9.95328-20.64384 14.92992-33.1776 14.92992-12.53376 0-21.38112-12.16512-26.54208-36.49536-11.0592-47.18592-25.8048-83.31264-44.2368-108.38016l12.16512-14.37696z m1549.39392-258.78528V878.3872c0 32.44032-2.7648 55.11168-8.2944 68.01408-5.5296 12.9024-19.53792 27.46368-42.02496 43.68384s-37.04832 24.33024-43.68384 24.33024c-6.63552 0-11.0592-7.00416-13.27104-21.01248-2.94912-24.33024-13.63968-42.3936-32.07168-54.19008-18.432-11.79648-55.296-21.74976-110.592-29.85984l3.31776-23.22432c49.39776 6.63552 86.81472 9.95328 112.25088 9.95328s41.84064-3.31776 49.21344-9.95328c7.3728-6.63552 11.0592-18.432 11.0592-35.38944V421.64224H1500.28288c-28.75392 0-53.82144 4.05504-75.20256 12.16512l-40.91904-49.7664c27.27936 3.6864 57.87648 5.5296 91.79136 5.5296h575.0784l7.74144-136.02816h-409.1904c-30.96576 0-56.03328 4.05504-75.20256 12.16512l-39.81312-48.66048c27.27936 3.6864 57.87648 5.5296 91.79136 5.5296h433.52064l6.63552-128.28672H1616.40448c-30.96576 0-56.03328 4.05504-75.20256 12.16512l-40.91904-48.66048c28.01664 3.6864 58.9824 5.5296 92.89728 5.5296h464.4864l36.49536-55.296 72.99072 53.08416c6.63552 4.42368 9.95328 8.66304 9.95328 12.71808s-2.94912 8.2944-8.84736 12.71808l-29.85984 22.1184-16.5888 280.90368h80.73216l66.3552-77.4144 78.52032 90.68544c5.89824 6.63552 8.84736 11.42784 8.84736 14.37696 0 2.94912-5.5296 4.42368-16.5888 4.42368H1903.94368v35.38944c25.06752 64.14336 56.40192 121.6512 94.0032 172.52352 83.31264-67.82976 144.87552-126.44352 184.68864-175.84128l60.8256 61.93152c6.63552 5.89824 9.95328 11.24352 9.95328 16.03584 0 4.79232-6.08256 7.18848-18.24768 7.18848-12.16512 0-31.3344 6.4512-57.50784 19.3536-26.17344 12.9024-80.91648 43.68384-164.22912 92.34432 84.7872 102.48192 204.5952 168.09984 359.424 196.85376v12.16512c-29.4912 5.16096-50.688 12.16512-63.5904 21.01248-12.9024 8.84736-21.74976 18.98496-26.54208 30.4128-4.79232 11.42784-10.1376 17.14176-16.03584 17.14176-11.0592 0-47.9232-20.82816-110.592-62.48448-62.6688-41.65632-113.90976-89.76384-153.72288-144.32256-39.81312-54.55872-72.62208-126.07488-98.42688-214.54848z m-370.4832-32.07168a906.40384 906.40384 0 0 1 102.85056 63.03744c30.96576 22.1184 46.44864 44.2368 46.44864 66.3552s-5.71392 39.99744-17.14176 53.63712c-11.42784 13.63968-24.14592 20.45952-38.15424 20.45952-6.63552 0-11.24352-2.21184-13.824-6.63552-2.58048-4.42368-5.71392-16.22016-9.40032-35.38944-6.63552-42.02496-34.28352-91.05408-82.944-147.08736l12.16512-14.37696z m278.69184 195.74784L1545.6256 835.25632c-13.27104 8.11008-29.85984 20.64384-49.7664 37.60128-19.90656 16.95744-31.88736 29.4912-35.9424 37.60128-4.05504 8.11008-8.47872 12.16512-13.27104 12.16512-4.79232 0-10.1376-4.42368-16.03584-13.27104L1380.84352 839.68l425.7792-184.68864 5.5296 15.48288z" fill="#515151" p-id="10448"></path></svg>