<?xml version="1.0" standalone="no"?><!DOCTYPE svg PUBLIC "-//W3C//DTD SVG 1.1//EN" "http://www.w3.org/Graphics/SVG/1.1/DTD/svg11.dtd"><svg t="1603508094984" class="icon" viewBox="0 0 1024 1024" version="1.1" xmlns="http://www.w3.org/2000/svg" p-id="8110" xmlns:xlink="http://www.w3.org/1999/xlink" width="200" height="200"><defs><style type="text/css"></style></defs><path d="M667.9 639.8H409.6l-33.9-188.7c-2.6-12.5 6.9-24.1 19.6-24.1h286.9c12.7 0 22.2 11.7 19.6 24.1l-33.9 188.7z" fill="#FFD45A" p-id="8111"></path><path d="M838 326.3c-10.3-12.5-25.4-19.7-41.6-19.7h-535l-5.6-29.6c-5.4-27.1-29.3-46.8-57-46.8h-30.6c-9.9 0-17.9 8-17.9 17.9 0 9.9 8 17.9 17.9 17.9h30.6c10.5 0 19.7 7.5 21.7 17.7l65.9 347.4c-0.1 0.6-0.1 1.2-0.1 1.8 0 3 0.7 5.7 2 8.2l11.3 59.5c4.8 25.4 27.1 43.8 52.9 43.8h25.6v18.5c0 28.6 23.3 51.9 51.9 51.9h8c28.6 0 51.9-23.3 51.9-51.9v-18.5H593v18.5c0 28.6 23.3 51.9 51.9 51.9h8c28.6 0 51.9-23.3 51.9-51.9v-18.5h25.5c25.6 0 47.8-18.2 52.8-43.3L849.2 371c3.1-15.9-0.9-32.1-11.2-44.7zM454.1 763.1c0 8.8-7.2 16-16 16h-8c-8.8 0-16-7.2-16-16v-18.5h40.1v18.5z m215 0c0 8.8-7.2 16-16 16h-8c-8.8 0-16-7.2-16-16v-18.5h40.1v18.5zM814 364l-65.9 330.3c-1.7 8.4-9.1 14.4-17.6 14.4h-378c-8.6 0-16-6.2-17.6-14.6l-8.2-43.1H674c9.9 0 17.9-8 17.9-17.9s-8-17.9-17.9-17.9H319.9l-51.7-272.6h528.2c5.4 0 10.5 2.4 13.9 6.6 3.4 4.1 4.7 9.5 3.7 14.8z" fill="#593A25" p-id="8112"></path></svg>